<?xml version="1.0" encoding="UTF-8"?>
<svg id="Camada_2" data-name="Camada 2" xmlns="http://www.w3.org/2000/svg" viewBox="0 0 182.92 33.76">
  <defs>
    <style>
      .cls-1 {
        fill: #1d1d1b;
      }

      .cls-1, .cls-2 {
        stroke-width: 0px;
      }

      .cls-2 {
        fill: #00e757;
      }
    </style>
  </defs>
  <g id="Camada_1-2" data-name="Camada 1">
    <g>
      <g>
        <path class="cls-1" d="M60.73,26.41c-1.41,0-2.74-.26-3.99-.78-1.25-.52-2.32-1.23-3.21-2.12-.89-.89-1.6-1.97-2.11-3.21-.52-1.25-.77-2.57-.77-3.97s.26-2.72.77-3.95,1.22-2.3,2.11-3.18c.89-.88,1.97-1.58,3.22-2.09,1.26-.51,2.59-.77,4.01-.77,2.45,0,4.56.71,6.32,2.14,1.76,1.43,2.87,3.31,3.34,5.66,0,0,0,0,0,0h-5.1c-.41-.94-1.03-1.67-1.84-2.19-.81-.52-1.73-.78-2.75-.78-1.39,0-2.55.5-3.48,1.49-.93.99-1.4,2.22-1.4,3.69s.47,2.71,1.41,3.72c.94,1.01,2.1,1.52,3.47,1.52,1.04,0,1.96-.28,2.75-.83.79-.55,1.4-1.33,1.84-2.36h5.17s0,0,0,0c-.45,2.39-1.57,4.33-3.36,5.8-1.79,1.47-3.93,2.21-6.4,2.21Z"/>
        <path class="cls-1" d="M88.67,6.86h3.86s0,0,0,0v19.01s0,0,0,0h-4.03s0,0,0,0l-.46-1.74c-1.73,1.51-3.78,2.27-6.15,2.27-1.88,0-3.58-.44-5.11-1.31-1.52-.87-2.72-2.08-3.58-3.62-.86-1.54-1.29-3.26-1.29-5.15s.43-3.58,1.29-5.11c.86-1.53,2.05-2.73,3.58-3.59,1.52-.87,3.23-1.3,5.11-1.3,2.42,0,4.5.77,6.24,2.32l.54-1.79s0,0,0,0ZM78.6,20.05c.98.99,2.21,1.49,3.7,1.49s2.72-.49,3.7-1.48c.98-.99,1.47-2.23,1.47-3.73s-.49-2.74-1.47-3.73c-.98-.99-2.21-1.48-3.7-1.48s-2.72.5-3.7,1.49c-.98.99-1.47,2.23-1.47,3.72s.49,2.73,1.47,3.72Z"/>
        <path class="cls-1" d="M179.06,6.86h3.86s0,0,0,0v19.01s0,0,0,0h-4.03s0,0,0,0l-.46-1.74c-1.73,1.51-3.78,2.27-6.15,2.27-1.88,0-3.58-.44-5.11-1.31-1.52-.87-2.72-2.08-3.58-3.62-.86-1.54-1.29-3.26-1.29-5.15s.43-3.58,1.29-5.11c.86-1.53,2.05-2.73,3.58-3.59,1.52-.87,3.23-1.3,5.11-1.3,2.42,0,4.5.77,6.24,2.32l.54-1.79s0,0,0,0ZM168.99,20.05c.98.99,2.21,1.49,3.7,1.49s2.72-.49,3.7-1.48c.98-.99,1.47-2.23,1.47-3.73s-.49-2.74-1.47-3.73c-.98-.99-2.21-1.48-3.7-1.48s-2.72.5-3.7,1.49c-.98.99-1.47,2.23-1.47,3.72s.49,2.73,1.47,3.72Z"/>
        <path class="cls-1" d="M106.04,6.33c1.88,0,3.58.43,5.1,1.3,1.52.87,2.71,2.07,3.57,3.6.86,1.54,1.29,3.25,1.29,5.14s-.43,3.61-1.29,5.15c-.86,1.54-2.05,2.75-3.57,3.62-1.52.87-3.22,1.31-5.1,1.31s-3.67-.53-5.23-1.6v7.89s0,0,0,0h-5.14s0,0,0,0V6.86s0,0,0,0h3.38s0,0,0,0l.88,1.74c1.71-1.51,3.74-2.27,6.1-2.27ZM101.9,20.09c.98.99,2.21,1.49,3.7,1.49s2.72-.49,3.7-1.48c.98-.99,1.47-2.23,1.47-3.73s-.49-2.74-1.47-3.73c-.98-.99-2.21-1.48-3.7-1.48s-2.72.5-3.7,1.49c-.98.99-1.47,2.23-1.47,3.72s.49,2.73,1.47,3.72Z"/>
        <path class="cls-1" d="M150.61,6.33c1.9,0,3.62.43,5.14,1.3,1.52.87,2.71,2.06,3.57,3.59.85,1.53,1.28,3.25,1.28,5.15s-.43,3.62-1.28,5.15c-.85,1.53-2.04,2.73-3.57,3.59-1.52.87-3.24,1.3-5.14,1.3-2.28,0-4.26-.7-5.95-2.11l-.62,1.58s0,0,0,0h-3.78s0,0,0,0V0s0,0,0,0h5.14s0,0,0,0v7.89s0,0,0,0c1.52-1.04,3.26-1.56,5.21-1.56ZM146.48,20.06c.99.99,2.22,1.48,3.71,1.48s2.72-.49,3.7-1.48,1.47-2.22,1.47-3.7-.49-2.74-1.47-3.73c-.98-.99-2.21-1.48-3.7-1.48s-2.73.5-3.71,1.49c-.99.99-1.48,2.23-1.48,3.72s.49,2.71,1.48,3.7Z"/>
        <path class="cls-1" d="M132.26,6.86s0,0,0,0v9.01c0,1.42-.45,2.6-1.37,3.53-.89.91-2,1.37-3.34,1.4-1.35-.02-2.47-.49-3.35-1.4-.91-.94-1.36-2.11-1.36-3.53V6.86s0,0,0,0h-5.14s0,0,0,0v9.01c0,1.75.41,3.36,1.25,4.82.83,1.46,1.97,2.61,3.42,3.45,1.45.84,3.05,1.25,4.79,1.25.17,0,.34,0,.51-.01,1.72-.12,3.28-.69,4.7-1.69v1.22c0,1.35-.46,2.43-1.37,3.24-.9.79-2.01,1.2-3.32,1.21-.95-.02-1.82-.25-2.63-.67-.85-.45-1.42-1.09-1.69-1.9h-5.1s0,0,0,0c.43,2.18,1.51,3.89,3.23,5.12,1.61,1.16,3.6,1.78,5.97,1.85.08,0,.17,0,.25,0,3.01,0,5.38-.86,7.12-2.57,1.73-1.71,2.6-4.05,2.6-7.02V6.86s0,0,0,0h-5.14Z"/>
      </g>
      <g>
        <path class="cls-2" d="M33.76,26.26v7.5c-9.32,0-16.88-7.56-16.88-16.88h7.5c0,5.18,4.2,9.38,9.38,9.38Z"/>
        <path class="cls-2" d="M33.76,16.88h-7.5c0-5.18-4.2-9.38-9.38-9.38s-9.38,4.2-9.38,9.38H0C0,7.56,7.56,0,16.88,0s16.88,7.56,16.88,16.88Z"/>
        <path class="cls-2" d="M16.88,16.88c0,9.32-7.56,16.88-16.88,16.88v-7.5c5.18,0,9.38-4.2,9.38-9.38h7.5Z"/>
      </g>
    </g>
  </g>
</svg>